<mxfile modified="2023-06-18T02:02:58.354Z" host="app.diagrams.net" agent="Mozilla/5.0 (X11; Linux x86_64; rv:109.0) Gecko/20100101 Firefox/115.0" etag="awngQWB1wj8dRMezcikN" version="21.4.0" type="device">
  <diagram id="f106602c-feb2-e66a-4537-3a34d633f6aa" name="Page-1">
    <mxGraphModel dx="768" dy="403" grid="1" gridSize="10" guides="1" tooltips="1" connect="1" arrows="1" fold="1" page="1" pageScale="1" pageWidth="1169" pageHeight="827" background="none" math="0" shadow="0">
      <root>
        <mxCell id="0" />
        <mxCell id="1" parent="0" />
        <mxCell id="csMQn5wwXg3bA4OapCwi-1002" value="Servidor" style="rounded=1;whiteSpace=wrap;html=1;verticalAlign=bottom;labelPosition=center;verticalLabelPosition=top;align=center;fontFamily=Open Sans;fontSource=https%3A%2F%2Ffonts.googleapis.com%2Fcss%3Ffamily%3DOpen%2BSans;fontSize=14;strokeColor=#C7131F;fontColor=#C7131F;fillColor=none;" vertex="1" parent="1">
          <mxGeometry x="560" y="180" width="210" height="250" as="geometry" />
        </mxCell>
        <mxCell id="csMQn5wwXg3bA4OapCwi-1008" value="Autentica-se" style="edgeStyle=orthogonalEdgeStyle;rounded=0;orthogonalLoop=1;jettySize=auto;html=1;fontFamily=Open Sans;fontSource=https%3A%2F%2Ffonts.googleapis.com%2Fcss%3Ffamily%3DOpen%2BSans;fontSize=14;entryX=0;entryY=0.25;entryDx=0;entryDy=0;entryPerimeter=0;labelPosition=center;verticalLabelPosition=top;align=center;verticalAlign=bottom;strokeColor=#B3B3B3;fontColor=#999999;labelBackgroundColor=none;" edge="1" parent="1" target="csMQn5wwXg3bA4OapCwi-1011">
          <mxGeometry relative="1" as="geometry">
            <mxPoint x="190" y="227" as="sourcePoint" />
            <mxPoint x="720" y="226.5" as="targetPoint" />
            <Array as="points">
              <mxPoint x="210" y="227" />
            </Array>
          </mxGeometry>
        </mxCell>
        <mxCell id="csMQn5wwXg3bA4OapCwi-1009" value="" style="edgeStyle=orthogonalEdgeStyle;rounded=0;orthogonalLoop=1;jettySize=auto;html=1;exitX=0;exitY=0.75;exitDx=0;exitDy=0;fontFamily=Open Sans;fontSource=https%3A%2F%2Ffonts.googleapis.com%2Fcss%3Ffamily%3DOpen%2BSans;fontSize=14;exitPerimeter=0;dashed=1;dashPattern=12 12;labelPosition=center;verticalLabelPosition=bottom;align=center;verticalAlign=top;strokeColor=#B3B3B3;fontColor=#B3B3B3;" edge="1" parent="1" source="csMQn5wwXg3bA4OapCwi-1011">
          <mxGeometry relative="1" as="geometry">
            <mxPoint x="720" y="251.5" as="sourcePoint" />
            <mxPoint x="190" y="251" as="targetPoint" />
            <Array as="points">
              <mxPoint x="449" y="252" />
              <mxPoint x="189" y="251" />
            </Array>
          </mxGeometry>
        </mxCell>
        <mxCell id="csMQn5wwXg3bA4OapCwi-1011" value="Serviço de autenticação" style="sketch=0;points=[[0,0,0],[0.25,0,0],[0.5,0,0],[0.75,0,0],[1,0,0],[0,1,0],[0.25,1,0],[0.5,1,0],[0.75,1,0],[1,1,0],[0,0.25,0],[0,0.5,0],[0,0.75,0],[1,0.25,0],[1,0.5,0],[1,0.75,0]];outlineConnect=0;fontColor=#F54749;gradientColor=#F54749;gradientDirection=north;fillColor=#C7131F;strokeColor=#ffffff;dashed=0;verticalLabelPosition=bottom;verticalAlign=top;align=center;html=1;fontSize=14;fontStyle=0;aspect=fixed;shape=mxgraph.aws4.resourceIcon;resIcon=mxgraph.aws4.identity_and_access_management;fontFamily=Open Sans;fontSource=https%3A%2F%2Ffonts.googleapis.com%2Fcss%3Ffamily%3DOpen%2BSans;" vertex="1" parent="1">
          <mxGeometry x="640" y="214" width="50" height="50" as="geometry" />
        </mxCell>
        <mxCell id="csMQn5wwXg3bA4OapCwi-1020" value="Apresenta o JWT para autenticação e autorização" style="edgeStyle=orthogonalEdgeStyle;rounded=0;orthogonalLoop=1;jettySize=auto;html=1;entryX=0;entryY=0.5;entryDx=0;entryDy=0;entryPerimeter=0;fontFamily=Open Sans;fontSource=https%3A%2F%2Ffonts.googleapis.com%2Fcss%3Ffamily%3DOpen%2BSans;fontSize=14;labelPosition=center;verticalLabelPosition=bottom;align=center;verticalAlign=top;strokeColor=#B3B3B3;fontColor=#999999;labelBackgroundColor=none;" edge="1" parent="1" source="csMQn5wwXg3bA4OapCwi-1014">
          <mxGeometry relative="1" as="geometry">
            <mxPoint x="155" y="280" as="sourcePoint" />
            <mxPoint x="641" y="355" as="targetPoint" />
            <Array as="points">
              <mxPoint x="156" y="355" />
            </Array>
          </mxGeometry>
        </mxCell>
        <mxCell id="csMQn5wwXg3bA4OapCwi-1014" value="Aplicação" style="sketch=0;outlineConnect=0;fontColor=#945DF2;gradientColor=#945DF2;fillColor=#5A30B5;strokeColor=none;dashed=0;verticalLabelPosition=top;verticalAlign=bottom;align=center;html=1;fontSize=14;fontStyle=0;aspect=fixed;pointerEvents=1;shape=mxgraph.aws4.external_sdk;fontFamily=Open Sans;fontSource=https%3A%2F%2Ffonts.googleapis.com%2Fcss%3Ffamily%3DOpen%2BSans;gradientDirection=north;labelPosition=center;" vertex="1" parent="1">
          <mxGeometry x="120" y="200" width="71" height="78" as="geometry" />
        </mxCell>
        <mxCell id="csMQn5wwXg3bA4OapCwi-1015" value="Retorna um JWT" style="sketch=0;outlineConnect=0;fontColor=#999999;gradientColor=#AF0806;fillColor=#CF1826;strokeColor=none;dashed=0;verticalLabelPosition=middle;verticalAlign=middle;align=left;html=1;fontSize=14;fontStyle=0;aspect=fixed;pointerEvents=1;shape=mxgraph.aws4.saml_token;labelPosition=right;fontFamily=Open Sans;fontSource=https%3A%2F%2Ffonts.googleapis.com%2Fcss%3Ffamily%3DOpen%2BSans;spacingRight=0;spacingLeft=4;opacity=70;" vertex="1" parent="1">
          <mxGeometry x="327" y="258" width="30" height="30" as="geometry" />
        </mxCell>
        <mxCell id="csMQn5wwXg3bA4OapCwi-1018" value="Serviço de negócio" style="sketch=0;points=[[0,0,0],[0.25,0,0],[0.5,0,0],[0.75,0,0],[1,0,0],[0,1,0],[0.25,1,0],[0.5,1,0],[0.75,1,0],[1,1,0],[0,0.25,0],[0,0.5,0],[0,0.75,0],[1,0.25,0],[1,0.5,0],[1,0.75,0]];outlineConnect=0;fontColor=#F54749;gradientColor=#F54749;gradientDirection=north;fillColor=#C7131F;strokeColor=#ffffff;dashed=0;verticalLabelPosition=bottom;verticalAlign=top;align=center;html=1;fontSize=14;fontStyle=0;aspect=fixed;shape=mxgraph.aws4.resourceIcon;resIcon=mxgraph.aws4.app_mesh;fontFamily=Open Sans;fontSource=https%3A%2F%2Ffonts.googleapis.com%2Fcss%3Ffamily%3DOpen%2BSans;" vertex="1" parent="1">
          <mxGeometry x="640" y="330" width="50" height="50" as="geometry" />
        </mxCell>
      </root>
    </mxGraphModel>
  </diagram>
</mxfile>
